<?xml version="1.0" encoding="UTF-8" standalone="no"?>
<!DOCTYPE svg PUBLIC "-//W3C//DTD SVG 1.1//EN" "http://www.w3.org/Graphics/SVG/1.1/DTD/svg11.dtd">
<svg version="1.1" xmlns="http://www.w3.org/2000/svg" xmlns:xlink="http://www.w3.org/1999/xlink" preserveAspectRatio="xMidYMid meet" viewBox="0 0 640 640" width="640" height="640"><defs><path d="M420 588.8C365.2 618 292.4 583.6 265.2 552C228.8 510 187.6 496 169.6 491.2C154.8 487.2 154.4 478.8 187.2 484C192.8 484.8 233.6 490 273.6 495.6C314.4 501.2 366.4 502.4 377.6 509.6C414 533.2 471.6 561.2 420 588.8Z" id="amK3X5xMQ"></path><path d="M356.4 528C364.4 532.8 380.8 541.6 382.4 545.2C384 548.8 388 557.2 396.4 555.6C404.8 554 415.6 546.8 412.8 541.6C410 536.4 406 538 397.6 536C389.2 534 376.8 526.4 373.6 521.2C370 516 366.8 505.2 366.8 505.2C365.36 505.63 358.16 507.76 345.2 511.6C347.33 519.33 351.07 524.8 356.4 528Z" id="b17svb0oNj"></path><path d="M356.4 528C364.4 532.8 380.8 541.6 382.4 545.2C384 548.8 388 557.2 396.4 555.6C404.8 554 415.6 546.8 412.8 541.6C410 536.4 406 538 397.6 536C389.2 534 376.8 526.4 373.6 521.2C370 516 366.8 505.2 366.8 505.2C365.36 505.63 358.16 507.76 345.2 511.6C347.33 519.33 351.07 524.8 356.4 528Z" id="dheLce7yu"></path><path d="M189.6 448.4C176 421.2 181.6 399.2 178 392.8C174.4 386.4 165.6 388 163.6 395.2C161.6 402.4 158.8 449.2 183.2 474.4C208.4 499.6 238.4 505.6 238.4 505.6C238.4 505.6 245.6 530.8 260.4 537.6C275.2 544.4 280.8 539.6 280.8 539.6C280.8 539.6 277.2 547.6 280 552C282.8 556 313.6 564.4 318 568C322.4 572 326.4 583.2 337.6 579.2C348.8 575.2 352.4 570.8 349.6 565.6C346.8 560.4 339.2 558.4 333.6 558C328 557.6 307.6 548 307.6 548C307.6 548 316.4 539.6 318.4 533.2C320.4 526.8 319.6 522.4 319.6 522.4C322.36 521.36 344.44 513.04 347.2 512C347.2 512 352 533.6 353.2 548.8C354.4 564 355.2 571.2 356.8 578.4C358.4 586 357.6 595.6 370 594.4C382.4 593.2 387.2 590 385.6 585.2C384 580.4 376 575.6 374.4 566.8C372.8 558.4 374.8 515.2 376 510.8C376.8 506.4 386 482.4 386 482.4C387 482.2 395 480.6 396 480.4C396 480.4 400.4 511.6 402 525.6C403.6 539.6 404.8 562.4 404.8 567.2C404.8 572 407.6 577.6 413.6 578C419.6 578.8 432 574.8 431.6 569.6C431.2 564.4 422.4 557.2 421.6 551.2C420.8 545.2 419.6 492 425.2 473.6C430.8 455.2 434.8 445.2 434.8 445.2C431.32 437.28 403.48 373.92 400 366C400 366 386 369.2 368.4 368.8C350.4 368.4 297.2 368.4 266.8 406.8C235.6 445.6 237.6 481.6 237.6 481.6C228 474.96 203.6 475.6 189.6 448.4Z" id="iwMWPEhWD"></path><path d="M396 463.2C396.8 452 403.2 442.8 408.8 439.2C414.4 435.2 433.6 425.6 433.6 425.6C433.6 425.6 438.8 442.8 431.6 454.8C424.4 466.8 412.4 476.4 402.4 479.6C392.4 482.8 385.2 482.8 385.2 482.8C387.36 478.88 395.2 474.4 396 463.2Z" id="b1i1BybkHR"></path><path d="M343.2 490.4C342.4 480.8 339.6 466.4 339.6 466.4C339.6 466.4 336 474.8 328.4 478.4C320.8 482 313.6 483.6 307.2 480.8C300.8 478 285.6 470 285.6 470C285.6 470 308.4 485.2 312.8 497.6C317.6 510 319.2 522.8 319.2 522.8C321.07 522.08 330.4 518.48 347.2 512C345.33 503.73 344 496.53 343.2 490.4Z" id="ejiMHITEJ"></path><path d="M395.6 406.8C400.8 418.4 411.6 427.6 417.2 434.4C422.4 440.8 428.4 447.2 440.4 446C452.4 444.4 453.2 438.4 456.8 433.6C460.4 428.8 473.2 410.8 475.2 398.8C477.2 386.4 475.6 377.6 475.6 377.6C475.6 377.6 484 348.4 477.6 344.8C471.2 341.2 464.8 355.6 457.2 356.4C449.2 357.2 445.6 355.2 436.8 355.6C428 356 414 359.6 414 359.6C414 359.6 400.8 346 392.8 348.8C383.2 352.4 392.8 384 392.8 384C393.36 388.56 390.8 395.2 395.6 406.8Z" id="e3wZsX0v6"></path><path d="M432.4 436C432.8 434 444 434 444.8 436.4C445.6 438.4 441.2 442 438.8 442C436.4 442 432 438 432.4 436Z" id="a2eL49A4Wu"></path><path d="M455.2 408C461.2 405.6 463.6 406.8 463.6 406.8C463.6 406.8 462.4 413.6 457.6 416C453.2 418.4 448 417.6 448 417.6C449.44 415.68 449.2 410.4 455.2 408Z" id="a2ZzkX9WkR"></path><path d="M421.2 408.4C415.6 406.4 411.6 408.4 411.6 408.4C411.6 408.4 412.4 414.4 417.2 416.4C422 418.4 429.2 417.6 429.2 417.6C427.6 415.76 426.8 410.4 421.2 408.4Z" id="awK55r94m"></path><path d="M477.2 345.6C482 347.2 475.6 377.6 475.6 377.6C475.6 377.6 470.4 372.8 463.6 371.6C457.2 370.4 451.6 373.2 451.6 373.2C456.72 367.68 470.8 343.2 477.2 345.6Z" id="bGCLpMQHR"></path><path d="M393.2 349.6C384.4 352.4 392.8 384 392.8 384C392.8 384 399.2 375.6 404.4 373.6C409.6 371.6 420.8 372.8 420.8 372.8C415.28 368.16 399.6 347.6 393.2 349.6Z" id="kr3XW0a6k"></path></defs><g><g><g><use xlink:href="#amK3X5xMQ" opacity="1" fill="#000000" fill-opacity="1"></use><g><use xlink:href="#amK3X5xMQ" opacity="1" fill-opacity="0" stroke="#000000" stroke-width="1" stroke-opacity="0"></use></g></g><g><use xlink:href="#b17svb0oNj" opacity="1" fill="#999999" fill-opacity="1"></use><g><use xlink:href="#b17svb0oNj" opacity="1" fill-opacity="0" stroke="#000000" stroke-width="1" stroke-opacity="0"></use></g></g><g><use xlink:href="#dheLce7yu" opacity="1" fill="#000000" fill-opacity="1"></use><g><use xlink:href="#dheLce7yu" opacity="1" fill-opacity="0" stroke="#000000" stroke-width="1" stroke-opacity="0"></use></g></g><g><use xlink:href="#iwMWPEhWD" opacity="1" fill="#999999" fill-opacity="1"></use><g><use xlink:href="#iwMWPEhWD" opacity="1" fill-opacity="0" stroke="#000000" stroke-width="1" stroke-opacity="0"></use></g></g><g><use xlink:href="#b1i1BybkHR" opacity="1" fill="#e5e5e5" fill-opacity="1"></use><g><use xlink:href="#b1i1BybkHR" opacity="1" fill-opacity="0" stroke="#000000" stroke-width="1" stroke-opacity="0"></use></g></g><g><use xlink:href="#ejiMHITEJ" opacity="1" fill="#000000" fill-opacity="1"></use><g><use xlink:href="#ejiMHITEJ" opacity="1" fill-opacity="0" stroke="#000000" stroke-width="1" stroke-opacity="0"></use></g></g><g><use xlink:href="#e3wZsX0v6" opacity="1" fill="#999999" fill-opacity="1"></use><g><use xlink:href="#e3wZsX0v6" opacity="1" fill-opacity="0" stroke="#000000" stroke-width="1" stroke-opacity="0"></use></g></g><g><use xlink:href="#a2eL49A4Wu" opacity="1" fill="#2d3134" fill-opacity="1"></use><g><use xlink:href="#a2eL49A4Wu" opacity="1" fill-opacity="0" stroke="#000000" stroke-width="1" stroke-opacity="0"></use></g></g><g><use xlink:href="#a2ZzkX9WkR" opacity="1" fill="#2d3134" fill-opacity="1"></use><g><use xlink:href="#a2ZzkX9WkR" opacity="1" fill-opacity="0" stroke="#000000" stroke-width="1" stroke-opacity="0"></use></g></g><g><use xlink:href="#awK55r94m" opacity="1" fill="#2d3134" fill-opacity="1"></use><g><use xlink:href="#awK55r94m" opacity="1" fill-opacity="0" stroke="#000000" stroke-width="1" stroke-opacity="0"></use></g></g><g><use xlink:href="#bGCLpMQHR" opacity="1" fill="#000000" fill-opacity="1"></use><g><use xlink:href="#bGCLpMQHR" opacity="1" fill-opacity="0" stroke="#000000" stroke-width="1" stroke-opacity="0"></use></g></g><g><use xlink:href="#kr3XW0a6k" opacity="1" fill="#000000" fill-opacity="1"></use><g><use xlink:href="#kr3XW0a6k" opacity="1" fill-opacity="0" stroke="#000000" stroke-width="1" stroke-opacity="0"></use></g></g></g></g></svg>