<?xml version="1.0" encoding="UTF-8" standalone="no"?>
<!DOCTYPE svg PUBLIC "-//W3C//DTD SVG 1.1//EN" "http://www.w3.org/Graphics/SVG/1.1/DTD/svg11.dtd">
<svg version="1.1" xmlns="http://www.w3.org/2000/svg" xmlns:xlink="http://www.w3.org/1999/xlink" preserveAspectRatio="xMidYMid meet" viewBox="0 0 640 640" width="640" height="640"><defs><path d="M188.4 580C270.4 630 351.2 563.6 409.2 532.8C494.4 487.6 538 448 486 415.2C432.4 381.6 288 435.6 254.4 457.2C198 493.6 100.4 526 188.4 580Z" id="a1fgrJsZ7e"></path><path d="M389.2 381.6C389.2 387.2 389.2 404.8 389.2 409.6C389.2 418.4 370.8 424.8 370.8 433.6C370.8 445.2 393.6 452.4 400 450.8C406.4 449.2 410 446 410 434.8C410 423.6 414 376.8 415.6 362.4C417.2 348 411.2 303.2 411.2 303.2C407.36 307.12 388.16 326.72 353.6 362C377.33 368.13 389.2 374.67 389.2 381.6Z" id="aee0fxQbH"></path><path d="M389.2 381.6C389.2 387.2 389.2 404.8 389.2 409.6C389.2 418.4 370.8 424.8 370.8 433.6C370.8 445.2 393.6 452.4 400 450.8C406.4 449.2 410 446 410 434.8C410 423.6 414 376.8 415.6 362.4C417.2 348 411.2 303.2 411.2 303.2C407.36 307.12 388.16 326.72 353.6 362C377.33 368.13 389.2 374.67 389.2 381.6Z" id="g3rGuSbSA"></path><path d="M118.4 201.2C118.8 196.4 118.4 188.8 124.4 186C130.4 183.2 135.6 169.2 142.8 168C150 166.4 154 168.4 168 172.8C182 177.2 198.8 186.4 209.6 194C220.8 202 226 210 233.2 220.8C240.4 231.6 242.8 234.8 241.6 237.6C240.4 240.4 238.4 238.8 240 243.6C242.4 250 243.6 258.4 252 260.8C280.4 268.4 346 222.4 363.2 217.2C403.6 204 442.8 224.4 463.2 241.2C476.4 252 489.2 281.6 498.8 300.8C508.4 320 525.6 322.4 524 330.8C523.2 334.4 518 336.8 507.6 332.8C494.4 327.6 465.6 295.2 465.6 295.2C465.6 295.2 469.6 307.2 463.6 323.2C457.6 339.2 448.4 365.2 456.8 374C464.8 382.4 475.2 392 476.4 400.8C477.6 409.6 481.2 473.6 481.2 476.8C481.2 480 479.2 486 473.2 488C455.2 494 432.8 481.2 436 470C439.2 458.8 452 461.6 452 444.8C452 438.8 450.4 420.8 449.2 417.2C447.6 412.4 442.4 407.6 436 405.2C430.4 403.2 406.8 390 402 375.2C397.2 360.4 395.2 343.6 387.2 342.4C379.2 340 352 384.8 329.2 400C306.4 415.2 291.2 416.4 291.2 416.4C291.2 416.4 286.8 490.8 286.8 505.2C286.8 519.6 297.2 534.8 298.8 544.4C300.4 554.4 302.8 571.6 290.4 579.6C275.6 589.2 256.8 580.4 252.4 575.2C248.4 570 247.6 560.4 254 554.4C260 548.4 267.2 543.6 265.2 540.8C263.2 538 255.2 524.4 253.6 516C251.6 502.8 249.6 447.2 234 437.6C229.2 434.8 217.6 433.2 214.4 438C211.2 443.2 211.6 472.8 211.6 477.6C211.6 485.2 222.8 501.6 222.8 514.8C222.8 528 218 535.2 206.4 539.2C197.2 542.4 184.8 540 175.6 528.4C169.6 520.8 174.4 512.4 180.4 508.8C184.4 506.4 189.6 505.6 190 500.4C190.4 495.2 182.8 487.6 182.8 478C182.8 468.4 178.8 430 178.8 425.2C178.8 409.6 153.2 394.8 143.6 362.8C138.8 347.2 142.4 329.2 141.2 316C141.2 307.2 139.2 271.2 124 268C118.4 266.8 93.6 267.2 86.8 259.6C81.6 254 78.4 246.4 80 237.6C81.6 228.4 86.4 217.2 86.4 217.2C92.8 214.8 118 206 118.4 201.2Z" id="c28g6mvgtC"></path><path d="M155.6 214.4C149.2 210.8 142.8 218 150.8 224C158 229.6 165.2 226 165.2 226C163.28 223.68 162.4 218.4 155.6 214.4Z" id="c56SXpQ1AM"></path><path d="M89.6 215.6C84 214.4 77.6 217.6 77.6 224.8C77.6 234.8 86 242.4 86 242.4C86 242.4 101.2 242.4 102.8 228.4C103.6 221.2 98.8 217.6 89.6 215.6Z" id="bXgqtCPw"></path><path d="M120.4 200C117.2 204.4 119.2 194 119.2 194C119.44 195.2 124 196.4 120.4 200Z" id="c2PDtBUxZh"></path><path d="M167.6 299.6C185.6 299.6 201.2 292.4 210 284C218.8 275.6 242.4 250 242.4 250C243.2 250.84 249.6 257.56 250.4 258.4C250.4 258.4 222.4 294 210.4 301.2C198 308.4 185.2 314.8 167.2 314.4C149.2 314 140.8 308.4 140.8 308.4C140.64 307.39 139.84 302.32 138.4 293.2C145.87 297.47 155.6 299.6 167.6 299.6Z" id="aT3Oudi2w"></path><path d="M190 292C201.6 291.6 239.2 239.6 239.2 239.6C239.2 239.6 216.8 305.2 185.6 305.6C154.8 306 186.8 219.2 186.8 219.2C187.44 233.76 167.2 292.8 190 292Z" id="a1wbPo4S6z"></path></defs><g><g><g><use xlink:href="#a1fgrJsZ7e" opacity="1" fill="#000000" fill-opacity="1"></use><g><use xlink:href="#a1fgrJsZ7e" opacity="1" fill-opacity="0" stroke="#000000" stroke-width="1" stroke-opacity="0"></use></g></g><g><use xlink:href="#aee0fxQbH" opacity="1" fill="#825012" fill-opacity="1"></use><g><use xlink:href="#aee0fxQbH" opacity="1" fill-opacity="0" stroke="#000000" stroke-width="1" stroke-opacity="0"></use></g></g><g><use xlink:href="#g3rGuSbSA" opacity="1" fill="#000000" fill-opacity="1"></use><g><use xlink:href="#g3rGuSbSA" opacity="1" fill-opacity="0" stroke="#000000" stroke-width="1" stroke-opacity="0"></use></g></g><g><use xlink:href="#c28g6mvgtC" opacity="1" fill="#825012" fill-opacity="1"></use><g><use xlink:href="#c28g6mvgtC" opacity="1" fill-opacity="0" stroke="#000000" stroke-width="1" stroke-opacity="0"></use></g></g><g><use xlink:href="#c56SXpQ1AM" opacity="1" fill="#262626" fill-opacity="1"></use><g><use xlink:href="#c56SXpQ1AM" opacity="1" fill-opacity="0" stroke="#000000" stroke-width="1" stroke-opacity="0"></use></g></g><g><use xlink:href="#bXgqtCPw" opacity="1" fill="#262626" fill-opacity="1"></use><g><use xlink:href="#bXgqtCPw" opacity="1" fill-opacity="0" stroke="#000000" stroke-width="1" stroke-opacity="0"></use></g></g><g><use xlink:href="#c2PDtBUxZh" opacity="1" fill="#262626" fill-opacity="1"></use><g><use xlink:href="#c2PDtBUxZh" opacity="1" fill-opacity="0" stroke="#000000" stroke-width="1" stroke-opacity="0"></use></g></g><g><use xlink:href="#aT3Oudi2w" opacity="1" fill="#262626" fill-opacity="1"></use><g><use xlink:href="#aT3Oudi2w" opacity="1" fill-opacity="0" stroke="#000000" stroke-width="1" stroke-opacity="0"></use></g></g><g><use xlink:href="#a1wbPo4S6z" opacity="1" fill="#000000" fill-opacity="1"></use><g><use xlink:href="#a1wbPo4S6z" opacity="1" fill-opacity="0" stroke="#000000" stroke-width="1" stroke-opacity="0"></use></g></g></g></g></svg>